<svg width="56" height="52" viewBox="0 0 56 52" fill="none" xmlns="http://www.w3.org/2000/svg">
<path fill-rule="evenodd" clip-rule="evenodd" d="M44.8731 12.9961C44.0737 12.9961 43.2822 13.1444 42.5452 13.4323C41.813 13.7182 41.1496 14.1362 40.593 14.6619L15.6347 37.6822C15.2991 37.992 15.0925 38.4017 15.0517 38.8393L14.0114 49.9823C13.9604 50.5287 14.1721 51.068 14.5899 51.4561C15.0076 51.8439 15.5887 52.0404 16.1773 51.9928L28.1808 51.0271C28.6521 50.9892 29.0937 50.7976 29.4272 50.4859L54.2243 27.3181L54.2303 27.3126C54.79 26.7958 55.2342 26.1815 55.5378 25.505C55.8427 24.8261 55.9996 24.0979 55.9996 23.3624C55.9996 22.6268 55.8427 21.8986 55.5378 21.2197C55.2346 20.5434 54.79 19.9293 54.2307 19.4126L49.1644 14.6724L49.1584 14.667C48.6006 14.1389 47.9352 13.7192 47.201 13.4323C46.464 13.1444 45.6725 12.9961 44.8731 12.9961Z" fill="#B8D4FF"/>
<path fill-rule="evenodd" clip-rule="evenodd" d="M17.9215 2.40418C17.1303 -0.815788 12.1818 -0.795708 11.421 2.43056L11.3895 2.56492L11.3266 2.83067C10.3823 6.75577 6.98208 9.7678 2.71079 10.4576C-0.903611 11.0413 -0.903583 15.858 2.71079 16.4417C6.997 17.1339 10.406 20.1646 11.3364 24.1098L11.421 24.4687C12.1818 27.695 17.1303 27.7151 17.9215 24.4951L18.0242 24.0768C18.9899 20.1465 22.4031 17.1386 26.6815 16.4476C30.303 15.8627 30.303 11.0365 26.6815 10.4517C22.4258 9.76438 19.0261 6.78463 18.0398 2.88496C18.0128 2.77819 17.9877 2.67537 17.9607 2.56482L17.9215 2.40418Z" fill="#1A80FF"/>
</svg>
