<svg width="56" height="56" viewBox="0 0 56 56" fill="none" xmlns="http://www.w3.org/2000/svg">
<path fill-rule="evenodd" clip-rule="evenodd" d="M20.0002 23.9997C23.1828 23.9997 26.2351 22.7355 28.4855 20.4851C30.736 18.2346 32.0003 15.1824 32.0003 11.9999C32.0003 8.81731 30.736 5.76509 28.4855 3.51468C26.2351 1.26427 23.1828 0 20.0002 0C16.8175 0 13.7653 1.26427 11.5148 3.51468C9.26436 5.76509 8.00007 8.81731 8.00007 11.9999C8.00007 15.1824 9.26436 18.2346 11.5148 20.4851C13.7653 22.7355 16.8175 23.9997 20.0002 23.9997ZM2.00002 49.9995H24.2002C23.4861 48.3926 23.3214 46.5953 23.7314 44.8854C24.1414 43.1755 25.1034 41.6483 26.4685 40.5401C27.8336 39.4318 29.5259 38.8041 31.2835 38.7541C33.0412 38.7041 34.7664 39.2346 36.1923 40.2636L38.5923 41.8835L38.9003 41.4395C37.3445 36.9784 34.26 33.2119 30.1933 30.8068C26.1266 28.4017 21.3399 27.5134 16.681 28.299C12.0221 29.0847 7.79148 31.4937 4.73841 35.0994C1.68534 38.7051 0.00678893 43.2749 0 47.9995C0 48.5299 0.210715 49.0386 0.585791 49.4137C0.960867 49.7887 1.46958 49.9995 2.00002 49.9995Z" fill="#B8D4FF"/>
<path fill-rule="evenodd" clip-rule="evenodd" d="M54.7997 32.6C55.1149 32.8364 55.3805 33.1325 55.5812 33.4715C55.7819 33.8105 55.9139 34.1857 55.9696 34.5757C56.0253 34.9657 56.0037 35.3629 55.9059 35.7445C55.8081 36.1261 55.6361 36.4848 55.3998 36.8L42.9196 54.7998C42.6833 55.1149 42.3871 55.3805 42.0481 55.5812C41.7091 55.7819 41.3339 55.9139 40.9439 55.9696C40.5539 56.0253 40.1567 56.0037 39.7751 55.9059C39.3934 55.8081 39.0348 55.6361 38.7196 55.3998L29.7195 49.1598C29.4044 48.9234 29.1388 48.6273 28.9381 48.2883C28.7374 47.9493 28.6054 47.5741 28.5497 47.1841C28.494 46.7941 28.5156 46.397 28.6134 46.0153C28.7112 45.6337 28.8832 45.275 29.1195 44.9599C29.3559 44.6447 29.6521 44.3792 29.9911 44.1785C30.3301 43.9777 30.7053 43.8457 31.0953 43.79C31.4853 43.7343 31.8825 43.756 32.2641 43.8537C32.6457 43.9515 33.0044 44.1235 33.3196 44.3599L39.9196 48.7998L50.5997 33.2C51.0771 32.5635 51.7878 32.1427 52.5755 32.0302C53.3631 31.9176 54.1632 32.1226 54.7997 32.6Z" fill="#1A80FF"/>
</svg>
