<svg width="56" height="56" viewBox="0 0 56 56" fill="none" xmlns="http://www.w3.org/2000/svg">
<path fill-rule="evenodd" clip-rule="evenodd" d="M26.4012 0C24.0821 1.97171 22.2193 4.42379 20.9415 7.18654C19.6637 9.94928 19.0016 12.9567 19.0008 16.0006V16.0286C19.0128 18.1087 19.3209 20.1648 19.9209 22.1488L17.9528 26.753C17.551 27.692 17.4042 28.7205 17.5274 29.7344C17.6506 30.7483 18.0393 31.7117 18.6542 32.5272C19.2692 33.3427 20.0886 33.9813 21.0296 34.3786C21.9706 34.7758 22.9998 34.9175 24.0131 34.7893L29.3733 34.1093C32.5957 36.0018 36.2647 37.0002 40.0018 37.0014V49.0019C40.0018 50.8584 39.2642 52.639 37.9514 53.9518C36.6386 55.2646 34.8581 56.0021 33.0015 56.0021H7.00031C6.16354 55.9795 5.34177 55.7747 4.5922 55.4021C3.91217 55.0821 3.22414 54.6421 2.60011 54.114C1.44406 53.13 0 51.3699 0 49.0019V7.00026C0 3.13612 3.13614 0 7.00031 0H26.4012Z" fill="#B8D4FF"/>
<path fill-rule="evenodd" clip-rule="evenodd" d="M15.001 42.0011C15.001 41.2054 15.3171 40.4423 15.8797 39.8797C16.4423 39.3171 17.2054 39.001 18.0011 39.001H22.0013C22.797 39.001 23.5601 39.3171 24.1227 39.8797C24.6853 40.4423 25.0014 41.2054 25.0014 42.0011C25.0014 42.7968 24.6853 43.5599 24.1227 44.1225C23.5601 44.6851 22.797 45.0012 22.0013 45.0012H18.0011C17.2054 45.0012 16.4423 44.6851 15.8797 44.1225C15.3171 43.5599 15.001 42.7968 15.001 42.0011Z" fill="#1A80FF"/>
<path d="M40.0019 0C35.7582 0 31.6884 1.68577 28.6877 4.68647C25.6869 7.68716 24.0012 11.757 24.0012 16.0006C24.0127 18.1706 24.4475 20.3174 25.2812 22.3208L22.5491 28.7211C22.4945 28.8507 22.475 28.9925 22.4927 29.1321C22.5103 29.2717 22.5645 29.4042 22.6497 29.5162C22.7349 29.6281 22.8481 29.7157 22.9779 29.7699C23.1078 29.8242 23.2496 29.8432 23.3891 29.8251L30.5615 28.9211C32.6018 30.4115 34.9661 31.3976 37.4608 31.7985C39.9555 32.1994 42.5097 32.0038 44.9143 31.2278C47.3189 30.4517 49.5055 29.1172 51.2952 27.3335C53.0848 25.5498 54.4266 23.3677 55.2106 20.9657C55.9947 18.5637 56.1987 16.0102 55.8061 13.5141C55.4134 11.0181 54.4352 8.65057 52.9516 6.60531C51.4679 4.56005 49.521 2.89523 47.2702 1.74714C45.0193 0.599054 42.5286 0.000334643 40.0019 0Z" fill="#1A80FF"/>
<path fill-rule="evenodd" clip-rule="evenodd" d="M42.0022 8.00008C42.0022 7.46962 41.7915 6.9609 41.4164 6.58581C41.0413 6.21072 40.5325 6 40.0021 6C39.4716 6 38.9629 6.21072 38.5878 6.58581C38.2127 6.9609 38.002 7.46962 38.002 8.00008V14.0003C38.002 14.5308 38.2127 15.0395 38.5878 15.4146C38.9629 15.7897 39.4716 16.0004 40.0021 16.0004C40.5325 16.0004 41.0413 15.7897 41.4164 15.4146C41.7915 15.0395 42.0022 14.5308 42.0022 14.0003V8.00008ZM43.0022 22.0006C43.0022 21.2049 42.6861 20.4418 42.1235 19.8792C41.5609 19.3166 40.7978 19.0005 40.0021 19.0005C39.2064 19.0005 38.4433 19.3166 37.8807 19.8792C37.318 20.4418 37.002 21.2049 37.002 22.0006C37.002 22.7963 37.318 23.5594 37.8807 24.122C38.4433 24.6846 39.2064 25.0007 40.0021 25.0007C40.7978 25.0007 41.5609 24.6846 42.1235 24.122C42.6861 23.5594 43.0022 22.7963 43.0022 22.0006Z" fill="#B8D4FF"/>
</svg>
