<svg width="56" height="56" viewBox="0 0 56 56" fill="none" xmlns="http://www.w3.org/2000/svg">
<path fill-rule="evenodd" clip-rule="evenodd" d="M48.2812 23.1758C48.7934 23.1758 49.2853 23.3791 49.6475 23.7412C50.0095 24.1033 50.2128 24.5945 50.2129 25.1064V34.4648H34.998C34.8079 34.465 34.6257 34.6064 34.4912 34.8584C34.3566 35.1109 34.2803 35.4535 34.2803 35.8105V53.3105C34.2803 53.5707 34.3013 53.8271 34.3398 54.0723H7.72754C6.70319 54.0723 5.72042 53.6647 4.99609 52.9404C4.27191 52.2162 3.86525 51.2341 3.86523 50.21V25.1064C3.8653 24.5944 4.06856 24.1033 4.43066 23.7412C4.79278 23.3792 5.28383 23.1758 5.7959 23.1758H48.2812Z" fill="#B8D4FF"/>
<path d="M6.99469 0.946148C7.92164 0.328183 9.00309 -0.00750196 10.1232 0.000127237H43.9455C45.0656 -0.00750196 46.1509 0.328183 47.074 0.946148C48.0009 1.56411 48.7232 2.43384 49.1866 3.4409L49.1905 3.44853L53.9025 13.7899C54.0145 14.0358 54.0724 14.3023 54.0725 14.5719V23.0174C54.0725 24.0245 53.7094 25.0239 53.0103 25.7868C52.6583 26.1771 52.227 26.4898 51.7446 26.7047C51.2622 26.9196 50.7394 27.0318 50.2102 27.0342H3.86235C3.33314 27.0318 2.81034 26.9196 2.32793 26.7047C1.84551 26.4898 1.41425 26.1771 1.06217 25.7868C0.374403 25.0247 -0.00387752 24.0383 2.99723e-05 23.0174V14.5719C8.1902e-05 14.3023 0.0580025 14.0358 0.169972 13.7899L4.882 3.4409C5.34548 2.43384 6.07159 1.56411 6.99469 0.946148Z" fill="#1A80FF"/>
<path d="M9.65527 39.5991V34.7545C9.65527 34.2446 9.85802 33.7556 10.2189 33.3951C10.5798 33.0346 11.0693 32.832 11.5797 32.832H23.1801C23.6905 32.832 24.18 33.0346 24.5409 33.3951C24.9018 33.7556 25.1046 34.2446 25.1046 34.7545V39.5991C25.1046 40.109 24.9018 40.598 24.5409 40.9585C24.18 41.319 23.6905 41.5216 23.1801 41.5216H11.5797C11.0693 41.5216 10.5798 41.319 10.2189 40.9585C9.85802 40.598 9.65527 40.109 9.65527 39.5991Z" fill="white"/>
<path d="M45.9452 39.5898C45.6549 39.5898 45.3766 39.7051 45.1714 39.9103C44.9661 40.1155 44.8508 40.3939 44.8508 40.6841V44.8553H40.6793C40.3891 44.8553 40.1107 44.9706 39.9055 45.1758C39.7003 45.381 39.585 45.6594 39.585 45.9496V49.5059C39.585 49.7961 39.7003 50.0744 39.9055 50.2796C40.1107 50.4848 40.3891 50.6001 40.6793 50.6001H44.8508V54.9092C44.8508 55.1994 44.9661 55.4778 45.1714 55.683C45.3766 55.8882 45.6549 56.0035 45.9452 56.0035H49.5017C49.792 56.0035 50.0703 55.8882 50.2755 55.683C50.4808 55.4778 50.5961 55.1994 50.5961 54.9092V50.6001H54.9055C55.1957 50.6001 55.4741 50.4848 55.6793 50.2796C55.8845 50.0744 55.9998 49.7961 55.9998 49.5059V45.9496C55.9998 45.6594 55.8845 45.381 55.6793 45.1758C55.4741 44.9706 55.1957 44.8553 54.9055 44.8553H50.5961V40.6841C50.5961 40.3939 50.4808 40.1155 50.2755 39.9103C50.0703 39.7051 49.792 39.5898 49.5017 39.5898H45.9452Z" fill="#1A80FF"/>
</svg>
