<svg width="88" height="88" viewBox="0 0 88 88" fill="none" xmlns="http://www.w3.org/2000/svg">
<circle cx="44" cy="44" r="44" fill="#E8EAF0"/>
<circle cx="44" cy="44" r="44" fill="black" fill-opacity="0.4"/>
<circle cx="43.5" cy="37.5" r="17.5" fill="#9DA3B4"/>
<circle cx="43.5" cy="37.5" r="17.5" fill="black" fill-opacity="0.4"/>
<path d="M44.0068 62.4785C58.556 62.4785 70.6416 68.7718 73.0488 77.0469C65.2996 83.8626 55.1362 87.999 44.0049 87.999C32.8748 87.999 22.7118 83.8643 14.9629 77.0498C17.368 68.7732 29.4558 62.4785 44.0068 62.4785Z" fill="#9DA3B4"/>
<path d="M44.0068 62.4785C58.556 62.4785 70.6416 68.7718 73.0488 77.0469C65.2996 83.8626 55.1362 87.999 44.0049 87.999C32.8748 87.999 22.7118 83.8643 14.9629 77.0498C17.368 68.7732 29.4558 62.4785 44.0068 62.4785Z" fill="black" fill-opacity="0.4"/>
<path fill-rule="evenodd" clip-rule="evenodd" d="M47.4561 31C47.7921 31 48.1059 31.1688 48.291 31.4492L50.6309 34.999H55.3662C56.3342 34.999 57.2603 35.3885 57.9414 36.0771C58.6221 36.7655 59.0029 37.6972 59.0029 38.666V53.3301C59.0029 54.2989 58.6221 55.2305 57.9414 55.9189C57.2603 56.6076 56.3342 56.9971 55.3662 56.9971H31.6367C30.6687 56.9971 29.7426 56.6076 29.0615 55.9189C28.3808 55.2305 28 54.2989 28 53.3301V38.666C28 37.6972 28.3808 36.7656 29.0615 36.0771C29.7426 35.3885 30.6687 34.999 31.6367 34.999H36.3721L38.7119 31.4492L38.7871 31.3496C38.9757 31.1294 39.2528 31 39.5469 31H47.4561ZM37.7451 36.5498C37.5601 36.8304 37.2462 36.9989 36.9102 36.999H31.6367C31.2063 36.999 30.7912 37.1722 30.4834 37.4834C30.1752 37.7951 30 38.2205 30 38.666V53.3301C30 53.7756 30.1752 54.201 30.4834 54.5127C30.7912 54.8239 31.2063 54.9971 31.6367 54.9971H55.3662C55.7966 54.9971 56.2117 54.8239 56.5195 54.5127C56.8277 54.201 57.0029 53.7756 57.0029 53.3301V38.666C57.0029 38.2205 56.8277 37.7951 56.5195 37.4834C56.2117 37.1722 55.7966 36.999 55.3662 36.999H50.0928C49.7567 36.9989 49.4428 36.8304 49.2578 36.5498L46.917 33H40.0859L37.7451 36.5498ZM43.502 38.998C46.977 38.9981 49.7754 41.8443 49.7754 45.3311C49.7752 48.8176 46.9769 51.663 43.502 51.6631C40.0269 51.6631 37.2287 48.8177 37.2285 45.3311C37.2285 41.8442 40.0268 38.998 43.502 38.998ZM43.502 40.998C41.1524 40.998 39.2285 42.9277 39.2285 45.3311C39.2287 47.7343 41.1526 49.6631 43.502 49.6631C45.8513 49.663 47.7752 47.7342 47.7754 45.3311C47.7754 42.9277 45.8514 40.9981 43.502 40.998Z" fill="white"/>
</svg>
