<svg width="56" height="56" viewBox="0 0 56 56" fill="none" xmlns="http://www.w3.org/2000/svg">
<path d="M8 11.9999C8 15.1824 9.26429 18.2347 11.5148 20.4851C13.7652 22.7355 16.8175 23.9998 20.0001 23.9998C23.1827 23.9998 26.235 22.7355 28.4855 20.4851C30.7359 18.2347 32.0002 15.1824 32.0002 11.9999C32.0002 8.81731 30.7359 5.7651 28.4855 3.51468C26.235 1.26427 23.1827 0 20.0001 0C16.8175 0 13.7652 1.26427 11.5148 3.51468C9.26429 5.7651 8 8.81731 8 11.9999Z" fill="#B8D4FF"/>
<path d="M37.6241 26C37.0937 26 36.585 26.2107 36.2099 26.5858C35.8348 26.9608 35.6241 27.4696 35.6241 28V35.6239H28C27.4696 35.6239 26.9609 35.8346 26.5858 36.2097C26.2107 36.5847 26 37.0935 26 37.6239V44.1238C26 44.6542 26.2107 45.1629 26.5858 45.538C26.9609 45.9131 27.4696 46.1238 28 46.1238H35.6241V53.9997C35.6241 54.5301 35.8348 55.0388 36.2099 55.4139C36.585 55.789 37.0937 55.9997 37.6241 55.9997H44.1242C44.6546 55.9997 45.1633 55.789 45.5384 55.4139C45.9135 55.0388 46.1242 54.5301 46.1242 53.9997V46.1238H54.0003C54.5307 46.1238 55.0394 45.9131 55.4145 45.538C55.7896 45.1629 56.0003 44.6542 56.0003 44.1238V37.6239C56.0003 37.0935 55.7896 36.5847 55.4145 36.2097C55.0394 35.8346 54.5307 35.6239 54.0003 35.6239H46.1242V28C46.1242 27.4696 45.9135 26.9608 45.5384 26.5858C45.1633 26.2107 44.6546 26 44.1242 26H37.6241Z" fill="#1A80FF"/>
<path fill-rule="evenodd" clip-rule="evenodd" d="M29.9123 30.6251C26.8701 28.8892 23.4254 27.9827 19.9228 27.9962C16.4203 28.0098 12.9827 28.9429 9.95403 30.7022C6.92538 32.4616 4.41186 34.9854 2.66498 38.0212C0.918106 41.057 -0.000871988 44.4984 6.20854e-07 48.0009C6.20854e-07 48.5313 0.210716 49.04 0.585792 49.4151C0.960869 49.7901 1.46958 50.0009 2.00002 50.0009H24.1922C23.2117 49.366 22.4058 48.4956 21.8482 47.4692C21.2906 46.4428 20.9991 45.293 21.0002 44.1249V37.625C21.0002 33.761 24.1362 30.6251 28.0003 30.6251H29.9123Z" fill="#B8D4FF"/>
</svg>
