<svg width="247" height="14" viewBox="0 0 247 14" fill="none" xmlns="http://www.w3.org/2000/svg">
<path d="M4.69316 10.4907C4.06049 10.4907 3.46249 10.378 2.89916 10.1527C2.33582 9.92732 1.83749 9.60232 1.40416 9.17766C0.970823 8.75299 0.62849 8.24599 0.377156 7.65666C0.125823 7.05866 0.000156295 6.39132 0.000156295 5.65466C0.000156295 4.91799 0.125823 4.25499 0.377156 3.66566C0.62849 3.06766 0.970823 2.56066 1.40416 2.14466C1.83749 1.72866 2.33582 1.41232 2.89916 1.19566C3.46249 0.970323 4.06049 0.857656 4.69316 0.857656C5.32582 0.857656 5.92382 0.970323 6.48716 1.19566C7.05049 1.41232 7.54882 1.72866 7.98216 2.14466C8.42416 2.56066 8.76649 3.06766 9.00916 3.66566C9.26049 4.25499 9.38616 4.91799 9.38616 5.65466C9.38616 6.39132 9.26049 7.05866 9.00916 7.65666C8.76649 8.24599 8.42416 8.75299 7.98216 9.17766C7.54882 9.60232 7.05049 9.92732 6.48716 10.1527C5.92382 10.378 5.32582 10.4907 4.69316 10.4907ZM4.69316 9.90566C5.23916 9.90566 5.75482 9.80599 6.24016 9.60666C6.72549 9.39866 7.15449 9.10832 7.52716 8.73566C7.89982 8.35432 8.19016 7.90366 8.39816 7.38366C8.60616 6.86366 8.71016 6.28732 8.71016 5.65466C8.71016 5.02199 8.60616 4.44999 8.39816 3.93866C8.19016 3.41866 7.89982 2.97232 7.52716 2.59966C7.15449 2.22699 6.72549 1.94099 6.24016 1.74166C5.75482 1.54232 5.23916 1.44266 4.69316 1.44266C4.14716 1.44266 3.63149 1.54232 3.14616 1.74166C2.66082 1.94099 2.23182 2.22699 1.85916 2.59966C1.49516 2.97232 1.20482 3.41866 0.988156 3.93866C0.780156 4.44999 0.676156 5.02199 0.676156 5.65466C0.676156 6.28732 0.780156 6.86366 0.988156 7.38366C1.20482 7.90366 1.49516 8.35432 1.85916 8.73566C2.23182 9.10832 2.66082 9.39866 3.14616 9.60666C3.63149 9.80599 4.14716 9.90566 4.69316 9.90566ZM4.79716 8.52766C4.31182 8.52766 3.86982 8.41499 3.47116 8.18966C3.07249 7.95566 2.75616 7.62632 2.52216 7.20166C2.28816 6.76832 2.17116 6.25266 2.17116 5.65466C2.17116 5.09132 2.29682 4.60599 2.54816 4.19866C2.79949 3.78266 3.12882 3.46632 3.53616 3.24966C3.94349 3.02432 4.38116 2.91166 4.84916 2.91166C5.26516 2.91166 5.61182 2.98966 5.88916 3.14566C6.17516 3.30166 6.43082 3.49666 6.65616 3.73066L6.16216 4.30266C5.96282 4.11199 5.76782 3.96466 5.57716 3.86066C5.38649 3.75666 5.16116 3.70466 4.90116 3.70466C4.36382 3.70466 3.93482 3.88666 3.61416 4.25066C3.29349 4.61466 3.13316 5.08266 3.13316 5.65466C3.13316 6.29599 3.28482 6.80299 3.58816 7.17566C3.90016 7.54832 4.32049 7.73466 4.84916 7.73466C5.16116 7.73466 5.42982 7.67399 5.65516 7.55266C5.88916 7.42266 6.11449 7.26666 6.33116 7.08466L6.77316 7.70866C6.50449 7.93399 6.21849 8.12899 5.91516 8.29366C5.61182 8.44966 5.23916 8.52766 4.79716 8.52766ZM13.5808 10.3477V9.64566C14.5168 8.71832 15.3098 7.90366 15.9598 7.20166C16.6098 6.49099 17.1038 5.85399 17.4418 5.29066C17.7798 4.71866 17.9488 4.18132 17.9488 3.67866C17.9488 3.32332 17.8838 3.01132 17.7538 2.74266C17.6325 2.46532 17.4418 2.25299 17.1818 2.10566C16.9218 1.94966 16.5925 1.87166 16.1938 1.87166C15.8038 1.87166 15.4398 1.97999 15.1018 2.19666C14.7725 2.41332 14.4778 2.67332 14.2178 2.97666L13.5288 2.31366C13.9101 1.88032 14.3218 1.53799 14.7638 1.28666C15.2058 1.03532 15.7301 0.909656 16.3368 0.909656C16.9088 0.909656 17.3985 1.02232 17.8058 1.24766C18.2218 1.47299 18.5425 1.78932 18.7678 2.19666C19.0018 2.60399 19.1188 3.08066 19.1188 3.62666C19.1188 4.20732 18.9541 4.79666 18.6248 5.39466C18.2955 5.99266 17.8448 6.62099 17.2728 7.27966C16.7008 7.92966 16.0508 8.64032 15.3228 9.41166C15.5655 9.39432 15.8255 9.37699 16.1028 9.35966C16.3801 9.33366 16.6401 9.32066 16.8828 9.32066H19.5738V10.3477H13.5808ZM23.8337 10.5167C23.2184 10.5167 22.6897 10.3303 22.2477 9.95766C21.8057 9.58499 21.4634 9.03899 21.2207 8.31966C20.9867 7.60032 20.8697 6.72066 20.8697 5.68066C20.8697 4.64932 20.9867 3.77832 21.2207 3.06766C21.4634 2.35699 21.8057 1.81966 22.2477 1.45566C22.6897 1.09166 23.2184 0.909656 23.8337 0.909656C24.4491 0.909656 24.9777 1.09166 25.4197 1.45566C25.8617 1.81966 26.1997 2.35699 26.4337 3.06766C26.6764 3.77832 26.7977 4.64932 26.7977 5.68066C26.7977 6.72066 26.6764 7.60032 26.4337 8.31966C26.1997 9.03899 25.8617 9.58499 25.4197 9.95766C24.9777 10.3303 24.4491 10.5167 23.8337 10.5167ZM23.8337 9.55466C24.1977 9.55466 24.5141 9.42032 24.7827 9.15166C25.0601 8.88299 25.2724 8.46266 25.4197 7.89066C25.5757 7.31866 25.6537 6.58199 25.6537 5.68066C25.6537 4.77932 25.5757 4.04699 25.4197 3.48366C25.2724 2.92032 25.0601 2.50866 24.7827 2.24866C24.5141 1.98866 24.1977 1.85866 23.8337 1.85866C23.4784 1.85866 23.1621 1.98866 22.8847 2.24866C22.6074 2.50866 22.3907 2.92032 22.2347 3.48366C22.0874 4.04699 22.0137 4.77932 22.0137 5.68066C22.0137 6.58199 22.0874 7.31866 22.2347 7.89066C22.3907 8.46266 22.6074 8.88299 22.8847 9.15166C23.1621 9.42032 23.4784 9.55466 23.8337 9.55466ZM28.0027 10.3477V9.64566C28.9387 8.71832 29.7317 7.90366 30.3817 7.20166C31.0317 6.49099 31.5257 5.85399 31.8637 5.29066C32.2017 4.71866 32.3707 4.18132 32.3707 3.67866C32.3707 3.32332 32.3057 3.01132 32.1757 2.74266C32.0543 2.46532 31.8637 2.25299 31.6037 2.10566C31.3437 1.94966 31.0143 1.87166 30.6157 1.87166C30.2257 1.87166 29.8617 1.97999 29.5237 2.19666C29.1943 2.41332 28.8997 2.67332 28.6397 2.97666L27.9507 2.31366C28.332 1.88032 28.7437 1.53799 29.1857 1.28666C29.6277 1.03532 30.152 0.909656 30.7587 0.909656C31.3307 0.909656 31.8203 1.02232 32.2277 1.24766C32.6437 1.47299 32.9643 1.78932 33.1897 2.19666C33.4237 2.60399 33.5407 3.08066 33.5407 3.62666C33.5407 4.20732 33.376 4.79666 33.0467 5.39466C32.7173 5.99266 32.2667 6.62099 31.6947 7.27966C31.1227 7.92966 30.4727 8.64032 29.7447 9.41166C29.9873 9.39432 30.2473 9.37699 30.5247 9.35966C30.802 9.33366 31.062 9.32066 31.3047 9.32066H33.9957V10.3477H28.0027ZM38.5416 10.5167C38.0823 10.5167 37.6576 10.4257 37.2676 10.2437C36.8776 10.0617 36.5396 9.78432 36.2536 9.41166C35.9676 9.03899 35.7423 8.57532 35.5776 8.02066C35.4216 7.45732 35.3436 6.80299 35.3436 6.05766C35.3436 5.13032 35.4389 4.34166 35.6296 3.69166C35.8203 3.03299 36.0803 2.49999 36.4096 2.09266C36.7389 1.67666 37.1159 1.37766 37.5406 1.19566C37.9653 1.00499 38.4073 0.909656 38.8666 0.909656C39.3693 0.909656 39.8026 1.00499 40.1666 1.19566C40.5306 1.37766 40.8426 1.60732 41.1026 1.88466L40.4396 2.62566C40.2576 2.40032 40.0279 2.22266 39.7506 2.09266C39.4819 1.96266 39.2046 1.89766 38.9186 1.89766C38.4766 1.89766 38.0693 2.02766 37.6966 2.28766C37.3239 2.54766 37.0249 2.98099 36.7996 3.58766C36.5743 4.19432 36.4616 5.01766 36.4616 6.05766C36.4616 6.82032 36.5439 7.46599 36.7086 7.99466C36.8733 8.51466 37.1073 8.90899 37.4106 9.17766C37.7226 9.44632 38.0953 9.58066 38.5286 9.58066C38.8406 9.58066 39.1179 9.49832 39.3606 9.33366C39.6119 9.16032 39.8069 8.92199 39.9456 8.61866C40.0929 8.31532 40.1666 7.95999 40.1666 7.55266C40.1666 7.14532 40.1016 6.79432 39.9716 6.49966C39.8416 6.20499 39.6466 5.97966 39.3866 5.82366C39.1353 5.65899 38.8189 5.57666 38.4376 5.57666C38.1343 5.57666 37.8049 5.67632 37.4496 5.87566C37.0943 6.07499 36.7563 6.41299 36.4356 6.88966L36.3966 5.95366C36.5959 5.69366 36.8169 5.46832 37.0596 5.27766C37.3023 5.08699 37.5579 4.94399 37.8266 4.84866C38.1039 4.74466 38.3683 4.69266 38.6196 4.69266C39.1569 4.69266 39.6249 4.80099 40.0236 5.01766C40.4223 5.22566 40.7299 5.54199 40.9466 5.96666C41.1633 6.39132 41.2716 6.91999 41.2716 7.55266C41.2716 8.14199 41.1459 8.66199 40.8946 9.11266C40.6519 9.55466 40.3226 9.90132 39.9066 10.1527C39.4906 10.3953 39.0356 10.5167 38.5416 10.5167ZM49.4528 10.5167C48.9674 10.5167 48.5168 10.4473 48.1008 10.3087C47.6848 10.17 47.3208 9.94032 47.0088 9.61966C46.7054 9.29899 46.4671 8.87432 46.2938 8.34566C46.1204 7.81699 46.0338 7.17566 46.0338 6.42166V0.818656H47.2298V6.44766C47.2298 7.21032 47.3294 7.81266 47.5288 8.25466C47.7281 8.68799 47.9924 8.99999 48.3218 9.19066C48.6598 9.37266 49.0368 9.46366 49.4528 9.46366C49.8774 9.46366 50.2588 9.37266 50.5968 9.19066C50.9348 8.99999 51.2034 8.68799 51.4028 8.25466C51.6108 7.81266 51.7148 7.21032 51.7148 6.44766V0.818656H52.8718V6.42166C52.8718 7.17566 52.7851 7.81699 52.6118 8.34566C52.4471 8.87432 52.2088 9.29899 51.8968 9.61966C51.5848 9.94032 51.2208 10.17 50.8048 10.3087C50.3888 10.4473 49.9381 10.5167 49.4528 10.5167ZM55.4419 10.3477V0.818656H56.6639L60.1479 6.82466L61.1749 8.78766H61.2399C61.1966 8.31099 61.1576 7.81266 61.1229 7.29266C61.0882 6.77266 61.0709 6.26566 61.0709 5.77166V0.818656H62.2149V10.3477H60.9799L57.5089 4.32866L56.4819 2.37866H56.4299C56.4559 2.85532 56.4862 3.34499 56.5209 3.84766C56.5556 4.34166 56.5729 4.83999 56.5729 5.34266V10.3477H55.4419ZM64.8364 10.3477V0.818656H67.2154C68.1948 0.818656 69.0181 1.00499 69.6854 1.37766C70.3528 1.74166 70.8554 2.27466 71.1934 2.97666C71.5314 3.67866 71.7004 4.53666 71.7004 5.55066C71.7004 6.55599 71.5314 7.41832 71.1934 8.13766C70.8554 8.85699 70.3571 9.40732 69.6984 9.78866C69.0398 10.1613 68.2294 10.3477 67.2674 10.3477H64.8364ZM66.0324 9.35966H67.1114C67.8568 9.35966 68.4764 9.21232 68.9704 8.91766C69.4731 8.61432 69.8458 8.17666 70.0884 7.60466C70.3398 7.03266 70.4654 6.34799 70.4654 5.55066C70.4654 4.73599 70.3398 4.05132 70.0884 3.49666C69.8458 2.94199 69.4731 2.52166 68.9704 2.23566C68.4764 1.94099 67.8568 1.79366 67.1114 1.79366H66.0324V9.35966ZM73.7866 10.3477V0.818656H79.2726V1.83266H74.9826V4.82266H78.5966V5.84966H74.9826V9.32066H79.4156V10.3477H73.7866ZM81.4419 10.3477V0.818656H84.4189C85.0689 0.818656 85.6409 0.905322 86.1349 1.07866C86.6376 1.24332 87.0319 1.52066 87.3179 1.91066C87.6039 2.30066 87.7469 2.82499 87.7469 3.48366C87.7469 4.11632 87.6039 4.64499 87.3179 5.06966C87.0319 5.48566 86.6376 5.79766 86.1349 6.00566C85.6409 6.20499 85.0689 6.30466 84.4189 6.30466H82.6379V10.3477H81.4419ZM82.6379 5.34266H84.2369C84.9822 5.34266 85.5542 5.19099 85.9529 4.88766C86.3516 4.57566 86.5509 4.10766 86.5509 3.48366C86.5509 2.85966 86.3516 2.42199 85.9529 2.17066C85.5542 1.91932 84.9822 1.79366 84.2369 1.79366H82.6379V5.34266ZM86.6679 10.3477L84.1719 5.99266L85.1209 5.35566L88.0199 10.3477H86.6679ZM89.6939 10.3477V0.818656H92.4109C93.1215 0.818656 93.7455 0.909656 94.2829 1.09166C94.8202 1.26499 95.2362 1.55532 95.5309 1.96266C95.8255 2.36999 95.9729 2.92032 95.9729 3.61366C95.9729 4.28099 95.8255 4.83132 95.5309 5.26466C95.2362 5.69799 94.8245 6.02299 94.2959 6.23966C93.7672 6.44766 93.1562 6.55166 92.4629 6.55166H90.8899V10.3477H89.6939ZM90.8899 5.57666H92.3069C93.1389 5.57666 93.7585 5.42066 94.1659 5.10866C94.5732 4.79666 94.7769 4.29832 94.7769 3.61366C94.7769 2.92032 94.5645 2.44366 94.1399 2.18366C93.7239 1.92366 93.0955 1.79366 92.2549 1.79366H90.8899V5.57666ZM97.9204 10.3477V0.818656H99.1164V4.80966H103.562V0.818656H104.771V10.3477H103.562V5.84966H99.1164V10.3477H97.9204ZM106.117 10.3477L109.341 0.818656H110.68L113.917 10.3477H112.643L110.979 5.01766C110.806 4.47166 110.641 3.93866 110.485 3.41866C110.329 2.88999 110.173 2.34832 110.017 1.79366H109.965C109.818 2.34832 109.662 2.88999 109.497 3.41866C109.341 3.93866 109.181 4.47166 109.016 5.01766L107.326 10.3477H106.117ZM107.794 7.43566V6.48666H112.188V7.43566H107.794ZM117.927 10.5167C117.251 10.5167 116.627 10.391 116.055 10.1397C115.491 9.88832 115.006 9.54599 114.599 9.11266L115.314 8.28066C115.652 8.63599 116.05 8.92199 116.51 9.13866C116.969 9.35532 117.446 9.46366 117.94 9.46366C118.572 9.46366 119.062 9.32066 119.409 9.03466C119.764 8.74866 119.942 8.37599 119.942 7.91666C119.942 7.57866 119.868 7.30999 119.721 7.11066C119.582 6.91132 119.391 6.74666 119.149 6.61666C118.915 6.47799 118.646 6.34366 118.343 6.21366L116.978 5.61566C116.683 5.48566 116.384 5.32099 116.081 5.12166C115.786 4.92232 115.539 4.66232 115.34 4.34166C115.14 4.02099 115.041 3.63099 115.041 3.17166C115.041 2.67766 115.171 2.24432 115.431 1.87166C115.691 1.49032 116.046 1.19132 116.497 0.974656C116.947 0.757989 117.463 0.649656 118.044 0.649656C118.616 0.649656 119.14 0.757989 119.617 0.974656C120.102 1.19132 120.509 1.47299 120.839 1.81966L120.215 2.58666C119.92 2.31799 119.595 2.10566 119.24 1.94966C118.893 1.78499 118.494 1.70266 118.044 1.70266C117.506 1.70266 117.073 1.82832 116.744 2.07966C116.423 2.32232 116.263 2.65599 116.263 3.08066C116.263 3.39266 116.341 3.64832 116.497 3.84766C116.661 4.04699 116.865 4.20732 117.108 4.32866C117.35 4.44999 117.597 4.56699 117.849 4.67966L119.201 5.26466C119.565 5.42066 119.894 5.60699 120.189 5.82366C120.492 6.04032 120.73 6.30899 120.904 6.62966C121.077 6.95032 121.164 7.34466 121.164 7.81266C121.164 8.31532 121.034 8.77466 120.774 9.19066C120.514 9.59799 120.141 9.92299 119.656 10.1657C119.17 10.3997 118.594 10.5167 117.927 10.5167ZM123.032 10.3477V0.818656H128.518V1.83266H124.228V4.82266H127.842V5.84966H124.228V9.32066H128.661V10.3477H123.032ZM131.181 10.5167C130.947 10.5167 130.743 10.4343 130.57 10.2697C130.405 10.0963 130.323 9.87966 130.323 9.61966C130.323 9.34232 130.405 9.12132 130.57 8.95666C130.743 8.79199 130.947 8.70966 131.181 8.70966C131.415 8.70966 131.614 8.79199 131.779 8.95666C131.952 9.12132 132.039 9.34232 132.039 9.61966C132.039 9.87966 131.952 10.0963 131.779 10.2697C131.614 10.4343 131.415 10.5167 131.181 10.5167ZM135.951 10.3477L139.175 0.818656H140.514L143.751 10.3477H142.477L140.813 5.01766C140.64 4.47166 140.475 3.93866 140.319 3.41866C140.163 2.88999 140.007 2.34832 139.851 1.79366H139.799C139.652 2.34832 139.496 2.88999 139.331 3.41866C139.175 3.93866 139.015 4.47166 138.85 5.01766L137.16 10.3477H135.951ZM137.628 7.43566V6.48666H142.022V7.43566H137.628ZM146.253 10.5167C145.958 10.5167 145.72 10.456 145.538 10.3347C145.356 10.2133 145.221 10.0357 145.135 9.80166C145.048 9.55899 145.005 9.27299 145.005 8.94366V-0.000344574H146.201V9.02166C146.201 9.20366 146.231 9.33366 146.292 9.41166C146.361 9.48966 146.439 9.52866 146.526 9.52866C146.56 9.52866 146.595 9.52866 146.63 9.52866C146.664 9.51999 146.712 9.51132 146.773 9.50266L146.942 10.4127C146.855 10.4387 146.76 10.4603 146.656 10.4777C146.552 10.5037 146.417 10.5167 146.253 10.5167ZM149.947 10.5167C149.652 10.5167 149.414 10.456 149.232 10.3347C149.05 10.2133 148.916 10.0357 148.829 9.80166C148.742 9.55899 148.699 9.27299 148.699 8.94366V-0.000344574H149.895V9.02166C149.895 9.20366 149.925 9.33366 149.986 9.41166C150.055 9.48966 150.133 9.52866 150.22 9.52866C150.255 9.52866 150.289 9.52866 150.324 9.52866C150.359 9.51999 150.406 9.51132 150.467 9.50266L150.636 10.4127C150.549 10.4387 150.454 10.4603 150.35 10.4777C150.246 10.5037 150.112 10.5167 149.947 10.5167ZM155.3 10.3477V3.28866H156.275L156.392 4.57566H156.418C156.661 4.12499 156.956 3.76966 157.302 3.50966C157.658 3.24099 158.03 3.10666 158.42 3.10666C158.585 3.10666 158.724 3.11966 158.836 3.14566C158.958 3.16299 159.07 3.20199 159.174 3.26266L158.953 4.28966C158.832 4.25499 158.724 4.22899 158.628 4.21166C158.533 4.18566 158.412 4.17266 158.264 4.17266C157.978 4.17266 157.671 4.29832 157.341 4.54966C157.012 4.79232 156.73 5.21266 156.496 5.81066V10.3477H155.3ZM160.341 10.3477V3.28866H161.537V10.3477H160.341ZM160.939 1.83266C160.705 1.83266 160.514 1.76332 160.367 1.62466C160.228 1.47732 160.159 1.28232 160.159 1.03966C160.159 0.805656 160.228 0.619322 160.367 0.480655C160.514 0.341989 160.705 0.272656 160.939 0.272656C161.173 0.272656 161.363 0.341989 161.511 0.480655C161.658 0.619322 161.732 0.805656 161.732 1.03966C161.732 1.28232 161.658 1.47732 161.511 1.62466C161.363 1.76332 161.173 1.83266 160.939 1.83266ZM166.3 13.5977C165.728 13.5977 165.221 13.524 164.779 13.3767C164.337 13.2293 163.994 13.0127 163.752 12.7267C163.509 12.4493 163.388 12.1113 163.388 11.7127C163.388 11.4093 163.479 11.1147 163.661 10.8287C163.843 10.5513 164.098 10.313 164.428 10.1137V10.0487C164.246 9.93599 164.094 9.78432 163.973 9.59366C163.851 9.40299 163.791 9.16899 163.791 8.89166C163.791 8.59699 163.873 8.33699 164.038 8.11166C164.211 7.88632 164.389 7.70866 164.571 7.57866V7.52666C164.337 7.34466 164.124 7.08899 163.934 6.75966C163.743 6.43032 163.648 6.05332 163.648 5.62866C163.648 5.10866 163.769 4.66232 164.012 4.28966C164.254 3.90832 164.575 3.61799 164.974 3.41866C165.381 3.21066 165.819 3.10666 166.287 3.10666C166.495 3.10666 166.681 3.12399 166.846 3.15866C167.019 3.19332 167.166 3.23666 167.288 3.28866H169.745V4.19866H168.302C168.475 4.36332 168.614 4.57132 168.718 4.82266C168.822 5.07399 168.874 5.35132 168.874 5.65466C168.874 6.15732 168.757 6.59499 168.523 6.96766C168.297 7.33166 167.99 7.61332 167.6 7.81266C167.21 8.01199 166.772 8.11166 166.287 8.11166C166.122 8.11166 165.944 8.08999 165.754 8.04666C165.572 8.00332 165.403 7.94266 165.247 7.86466C165.117 7.96866 165.008 8.08566 164.922 8.21566C164.835 8.34566 164.792 8.51032 164.792 8.70966C164.792 8.92632 164.878 9.10832 165.052 9.25566C165.225 9.40299 165.55 9.47666 166.027 9.47666H167.418C168.232 9.47666 168.843 9.61099 169.251 9.87966C169.667 10.1483 169.875 10.573 169.875 11.1537C169.875 11.587 169.727 11.99 169.433 12.3627C169.138 12.7353 168.722 13.0343 168.185 13.2597C167.656 13.485 167.028 13.5977 166.3 13.5977ZM166.287 7.30566C166.564 7.30566 166.815 7.23632 167.041 7.09766C167.275 6.95899 167.457 6.76399 167.587 6.51266C167.725 6.26132 167.795 5.96666 167.795 5.62866C167.795 5.28199 167.725 4.98732 167.587 4.74466C167.457 4.49332 167.279 4.30266 167.054 4.17266C166.828 4.04266 166.573 3.97766 166.287 3.97766C166.018 3.97766 165.767 4.04266 165.533 4.17266C165.307 4.30266 165.125 4.48899 164.987 4.73166C164.857 4.97432 164.792 5.27332 164.792 5.62866C164.792 5.96666 164.861 6.26132 165 6.51266C165.138 6.76399 165.32 6.95899 165.546 7.09766C165.771 7.23632 166.018 7.30566 166.287 7.30566ZM166.469 12.7787C166.919 12.7787 167.309 12.7093 167.639 12.5707C167.977 12.432 168.237 12.25 168.419 12.0247C168.609 11.808 168.705 11.5827 168.705 11.3487C168.705 11.0107 168.583 10.7767 168.341 10.6467C168.098 10.5167 167.743 10.4517 167.275 10.4517H166.053C165.923 10.4517 165.775 10.443 165.611 10.4257C165.455 10.417 165.299 10.391 165.143 10.3477C164.891 10.521 164.709 10.7117 164.597 10.9197C164.484 11.1363 164.428 11.3443 164.428 11.5437C164.428 11.9163 164.605 12.2153 164.961 12.4407C165.325 12.666 165.827 12.7787 166.469 12.7787ZM171.259 10.3477V-0.000344574H172.455V2.83366L172.403 4.28966C172.732 3.96032 173.083 3.68299 173.456 3.45766C173.828 3.22366 174.257 3.10666 174.743 3.10666C175.488 3.10666 176.034 3.34499 176.381 3.82166C176.727 4.28966 176.901 4.97432 176.901 5.87566V10.3477H175.718V6.03166C175.718 5.36432 175.609 4.88332 175.393 4.58866C175.185 4.29399 174.847 4.14666 174.379 4.14666C174.015 4.14666 173.69 4.23766 173.403 4.41966C173.118 4.60166 172.801 4.87032 172.455 5.22566V10.3477H171.259ZM181.365 10.5167C180.871 10.5167 180.477 10.4213 180.182 10.2307C179.887 10.0313 179.675 9.75399 179.545 9.39866C179.424 9.04332 179.363 8.63166 179.363 8.16366V4.25066H178.31V3.35366L179.428 3.28866L179.558 1.29966H180.546V3.28866H182.47V4.25066H180.546V8.20266C180.546 8.62732 180.624 8.96099 180.78 9.20366C180.945 9.43766 181.231 9.55466 181.638 9.55466C181.768 9.55466 181.907 9.53732 182.054 9.50266C182.201 9.45932 182.331 9.41166 182.444 9.35966L182.678 10.2567C182.479 10.326 182.266 10.3867 182.041 10.4387C181.816 10.4907 181.59 10.5167 181.365 10.5167ZM185.724 10.5167C185.23 10.5167 184.749 10.4257 184.281 10.2437C183.821 10.053 183.427 9.81899 183.098 9.54166L183.67 8.74866C183.982 8.99999 184.302 9.20366 184.632 9.35966C184.961 9.51566 185.338 9.59366 185.763 9.59366C186.231 9.59366 186.577 9.48966 186.803 9.28166C187.037 9.06499 187.154 8.80066 187.154 8.48866C187.154 8.24599 187.071 8.04666 186.907 7.89066C186.751 7.72599 186.547 7.58732 186.296 7.47466C186.053 7.35332 185.802 7.24499 185.542 7.14966C185.212 7.01966 184.887 6.87666 184.567 6.72066C184.255 6.55599 183.995 6.34799 183.787 6.09666C183.587 5.83666 183.488 5.50732 183.488 5.10866C183.488 4.72732 183.583 4.38932 183.774 4.09466C183.964 3.79132 184.242 3.55299 184.606 3.37966C184.97 3.19766 185.407 3.10666 185.919 3.10666C186.352 3.10666 186.755 3.18466 187.128 3.34066C187.509 3.49666 187.834 3.68732 188.103 3.91266L187.531 4.65366C187.288 4.48032 187.037 4.33299 186.777 4.21166C186.525 4.09032 186.244 4.02966 185.932 4.02966C185.481 4.02966 185.147 4.13366 184.931 4.34166C184.723 4.54099 184.619 4.77932 184.619 5.05666C184.619 5.27332 184.688 5.45532 184.827 5.60266C184.974 5.74999 185.165 5.87566 185.399 5.97966C185.633 6.07499 185.88 6.17466 186.14 6.27866C186.4 6.37399 186.655 6.47799 186.907 6.59066C187.167 6.70332 187.396 6.83766 187.596 6.99366C187.804 7.14966 187.968 7.34466 188.09 7.57866C188.22 7.80399 188.285 8.08566 188.285 8.42366C188.285 8.80499 188.185 9.15599 187.986 9.47666C187.795 9.79732 187.509 10.053 187.128 10.2437C186.755 10.4257 186.287 10.5167 185.724 10.5167ZM192.866 10.3477V3.28866H193.841L193.958 4.57566H193.984C194.227 4.12499 194.521 3.76966 194.868 3.50966C195.223 3.24099 195.596 3.10666 195.986 3.10666C196.151 3.10666 196.289 3.11966 196.402 3.14566C196.523 3.16299 196.636 3.20199 196.74 3.26266L196.519 4.28966C196.398 4.25499 196.289 4.22899 196.194 4.21166C196.099 4.18566 195.977 4.17266 195.83 4.17266C195.544 4.17266 195.236 4.29832 194.907 4.54966C194.578 4.79232 194.296 5.21266 194.062 5.81066V10.3477H192.866ZM200.588 10.5167C199.956 10.5167 199.384 10.3693 198.872 10.0747C198.361 9.77999 197.954 9.35966 197.65 8.81366C197.356 8.25899 197.208 7.59599 197.208 6.82466C197.208 6.24399 197.295 5.72832 197.468 5.27766C197.642 4.81832 197.876 4.42832 198.17 4.10766C198.474 3.77832 198.816 3.53132 199.197 3.36666C199.579 3.19332 199.969 3.10666 200.367 3.10666C200.974 3.10666 201.485 3.24099 201.901 3.50966C202.317 3.77832 202.634 4.16399 202.85 4.66666C203.076 5.16066 203.188 5.74566 203.188 6.42166C203.188 6.55166 203.184 6.67299 203.175 6.78566C203.167 6.89832 203.154 7.00232 203.136 7.09766H198.378C198.404 7.60032 198.517 8.03799 198.716 8.41066C198.924 8.77466 199.197 9.06066 199.535 9.26866C199.873 9.46799 200.268 9.56766 200.718 9.56766C201.065 9.56766 201.377 9.51999 201.654 9.42466C201.94 9.32066 202.218 9.18199 202.486 9.00866L202.902 9.80166C202.599 10.001 202.257 10.17 201.875 10.3087C201.494 10.4473 201.065 10.5167 200.588 10.5167ZM198.365 6.25266H202.148C202.148 5.54199 201.992 5.00032 201.68 4.62766C201.377 4.24632 200.948 4.05566 200.393 4.05566C200.064 4.05566 199.752 4.14232 199.457 4.31566C199.171 4.48899 198.929 4.73599 198.729 5.05666C198.539 5.37732 198.417 5.77599 198.365 6.25266ZM206.772 10.5167C206.278 10.5167 205.797 10.4257 205.329 10.2437C204.87 10.053 204.476 9.81899 204.146 9.54166L204.718 8.74866C205.03 8.99999 205.351 9.20366 205.68 9.35966C206.01 9.51566 206.387 9.59366 206.811 9.59366C207.279 9.59366 207.626 9.48966 207.851 9.28166C208.085 9.06499 208.202 8.80066 208.202 8.48866C208.202 8.24599 208.12 8.04666 207.955 7.89066C207.799 7.72599 207.596 7.58732 207.344 7.47466C207.102 7.35332 206.85 7.24499 206.59 7.14966C206.261 7.01966 205.936 6.87666 205.615 6.72066C205.303 6.55599 205.043 6.34799 204.835 6.09666C204.636 5.83666 204.536 5.50732 204.536 5.10866C204.536 4.72732 204.632 4.38932 204.822 4.09466C205.013 3.79132 205.29 3.55299 205.654 3.37966C206.018 3.19766 206.456 3.10666 206.967 3.10666C207.401 3.10666 207.804 3.18466 208.176 3.34066C208.558 3.49666 208.883 3.68732 209.151 3.91266L208.579 4.65366C208.337 4.48032 208.085 4.33299 207.825 4.21166C207.574 4.09032 207.292 4.02966 206.98 4.02966C206.53 4.02966 206.196 4.13366 205.979 4.34166C205.771 4.54099 205.667 4.77932 205.667 5.05666C205.667 5.27332 205.737 5.45532 205.875 5.60266C206.023 5.74999 206.213 5.87566 206.447 5.97966C206.681 6.07499 206.928 6.17466 207.188 6.27866C207.448 6.37399 207.704 6.47799 207.955 6.59066C208.215 6.70332 208.445 6.83766 208.644 6.99366C208.852 7.14966 209.017 7.34466 209.138 7.57866C209.268 7.80399 209.333 8.08566 209.333 8.42366C209.333 8.80499 209.234 9.15599 209.034 9.47666C208.844 9.79732 208.558 10.053 208.176 10.2437C207.804 10.4257 207.336 10.5167 206.772 10.5167ZM213.868 10.5167C213.235 10.5167 212.663 10.3693 212.152 10.0747C211.64 9.77999 211.233 9.35966 210.93 8.81366C210.635 8.25899 210.488 7.59599 210.488 6.82466C210.488 6.24399 210.574 5.72832 210.748 5.27766C210.921 4.81832 211.155 4.42832 211.45 4.10766C211.753 3.77832 212.095 3.53132 212.477 3.36666C212.858 3.19332 213.248 3.10666 213.647 3.10666C214.253 3.10666 214.765 3.24099 215.181 3.50966C215.597 3.77832 215.913 4.16399 216.13 4.66666C216.355 5.16066 216.468 5.74566 216.468 6.42166C216.468 6.55166 216.463 6.67299 216.455 6.78566C216.446 6.89832 216.433 7.00232 216.416 7.09766H211.658C211.684 7.60032 211.796 8.03799 211.996 8.41066C212.204 8.77466 212.477 9.06066 212.815 9.26866C213.153 9.46799 213.547 9.56766 213.998 9.56766C214.344 9.56766 214.656 9.51999 214.934 9.42466C215.22 9.32066 215.497 9.18199 215.766 9.00866L216.182 9.80166C215.878 10.001 215.536 10.17 215.155 10.3087C214.773 10.4473 214.344 10.5167 213.868 10.5167ZM211.645 6.25266H215.428C215.428 5.54199 215.272 5.00032 214.96 4.62766C214.656 4.24632 214.227 4.05566 213.673 4.05566C213.343 4.05566 213.031 4.14232 212.737 4.31566C212.451 4.48899 212.208 4.73599 212.009 5.05666C211.818 5.37732 211.697 5.77599 211.645 6.25266ZM218.206 10.3477V3.28866H219.181L219.298 4.57566H219.324C219.566 4.12499 219.861 3.76966 220.208 3.50966C220.563 3.24099 220.936 3.10666 221.326 3.10666C221.49 3.10666 221.629 3.11966 221.742 3.14566C221.863 3.16299 221.976 3.20199 222.08 3.26266L221.859 4.28966C221.737 4.25499 221.629 4.22899 221.534 4.21166C221.438 4.18566 221.317 4.17266 221.17 4.17266C220.884 4.17266 220.576 4.29832 220.247 4.54966C219.917 4.79232 219.636 5.21266 219.402 5.81066V10.3477H218.206ZM225.097 10.3477L222.549 3.28866H223.784L225.11 7.30566C225.223 7.65232 225.331 8.00332 225.435 8.35866C225.548 8.70532 225.656 9.04766 225.76 9.38566H225.825C225.938 9.04766 226.046 8.70532 226.15 8.35866C226.263 8.00332 226.371 7.65232 226.475 7.30566L227.814 3.28866H228.984L226.488 10.3477H225.097ZM233.126 10.5167C232.494 10.5167 231.922 10.3693 231.41 10.0747C230.899 9.77999 230.492 9.35966 230.188 8.81366C229.894 8.25899 229.746 7.59599 229.746 6.82466C229.746 6.24399 229.833 5.72832 230.006 5.27766C230.18 4.81832 230.414 4.42832 230.708 4.10766C231.012 3.77832 231.354 3.53132 231.735 3.36666C232.117 3.19332 232.507 3.10666 232.905 3.10666C233.512 3.10666 234.023 3.24099 234.439 3.50966C234.855 3.77832 235.172 4.16399 235.388 4.66666C235.614 5.16066 235.726 5.74566 235.726 6.42166C235.726 6.55166 235.722 6.67299 235.713 6.78566C235.705 6.89832 235.692 7.00232 235.674 7.09766H230.916C230.942 7.60032 231.055 8.03799 231.254 8.41066C231.462 8.77466 231.735 9.06066 232.073 9.26866C232.411 9.46799 232.806 9.56766 233.256 9.56766C233.603 9.56766 233.915 9.51999 234.192 9.42466C234.478 9.32066 234.756 9.18199 235.024 9.00866L235.44 9.80166C235.137 10.001 234.795 10.17 234.413 10.3087C234.032 10.4473 233.603 10.5167 233.126 10.5167ZM230.903 6.25266H234.686C234.686 5.54199 234.53 5.00032 234.218 4.62766C233.915 4.24632 233.486 4.05566 232.931 4.05566C232.602 4.05566 232.29 4.14232 231.995 4.31566C231.709 4.48899 231.467 4.73599 231.267 5.05666C231.077 5.37732 230.955 5.77599 230.903 6.25266ZM239.87 10.5167C239.28 10.5167 238.765 10.3737 238.323 10.0877C237.889 9.80166 237.551 9.38566 237.309 8.83966C237.075 8.28499 236.958 7.61332 236.958 6.82466C236.958 6.06199 237.101 5.40332 237.387 4.84866C237.673 4.29399 238.045 3.86499 238.505 3.56166C238.973 3.25832 239.475 3.10666 240.013 3.10666C240.429 3.10666 240.784 3.18032 241.079 3.32766C241.382 3.46632 241.69 3.66566 242.002 3.92566L241.937 2.71666V-0.000344574H243.133V10.3477H242.158L242.054 9.51566H242.015C241.737 9.79299 241.417 10.0313 241.053 10.2307C240.689 10.4213 240.294 10.5167 239.87 10.5167ZM240.13 9.51566C240.459 9.51566 240.771 9.43766 241.066 9.28166C241.36 9.11699 241.651 8.87432 241.937 8.55366V4.84866C241.642 4.57999 241.356 4.38932 241.079 4.27666C240.801 4.16399 240.515 4.10766 240.221 4.10766C239.848 4.10766 239.506 4.22466 239.194 4.45866C238.89 4.68399 238.643 5.00032 238.453 5.40766C238.271 5.80632 238.18 6.27432 238.18 6.81166C238.18 7.37499 238.258 7.86032 238.414 8.26766C238.57 8.67499 238.791 8.98699 239.077 9.20366C239.371 9.41166 239.722 9.51566 240.13 9.51566ZM246.137 10.5167C245.903 10.5167 245.699 10.4343 245.526 10.2697C245.361 10.0963 245.279 9.87966 245.279 9.61966C245.279 9.34232 245.361 9.12132 245.526 8.95666C245.699 8.79199 245.903 8.70966 246.137 8.70966C246.371 8.70966 246.57 8.79199 246.735 8.95666C246.908 9.12132 246.995 9.34232 246.995 9.61966C246.995 9.87966 246.908 10.0963 246.735 10.2697C246.57 10.4343 246.371 10.5167 246.137 10.5167Z" fill="#9CA3AF"/>
</svg>
